<?xml version="1.0" encoding="iso-8859-1"?>
<!-- Generator: Adobe Illustrator 13.0.2, SVG Export Plug-In . SVG Version: 6.00 Build 14948)  -->
<!DOCTYPE svg PUBLIC "-//W3C//DTD SVG 1.1//EN" "http://www.w3.org/Graphics/SVG/1.1/DTD/svg11.dtd">
<svg version="1.1" id="Layer_1" xmlns="http://www.w3.org/2000/svg" xmlns:xlink="http://www.w3.org/1999/xlink" x="0px" y="0px"
	 width="48.607px" height="206.593px" viewBox="0 0 48.607 206.593" style="enable-background:new 0 0 48.607 206.593;"
	 xml:space="preserve">
<path style="fill:#010101;" d="M0.063,91.317c0.32-6.431,2.455-12.431,7.084-17.022c2.139-2.121,4.694-4.023,7.464-5.233
	c3.047-1.332,6.392-1.818,9.69-1.983c0,4.107,0,8.214,0,12.321c0,1.987,0,3.973,0,5.96c0,1.06,0,2.119,0,3.178
	c0,0.378,0.239,2.583-0.052,2.77c-0.354,0.227-1.424,0.009-1.811,0.009c-1.065,0-2.131,0-3.197,0c-2.131,0-4.262,0-6.393,0
	C8.588,91.317,4.326,91.317,0.063,91.317"/>
<path style="fill:none;stroke:#FFFFFF;stroke-width:0.1212;stroke-linecap:square;stroke-miterlimit:10;" d="M0.063,91.317
	c0.32-6.431,2.455-12.431,7.084-17.022c2.139-2.121,4.694-4.023,7.464-5.233c3.047-1.332,6.392-1.818,9.69-1.983"/>
<path style="fill:#010101;" d="M0.063,91.317c0.32-6.431,2.455-12.431,7.084-17.022c2.139-2.121,4.694-4.023,7.464-5.233
	c3.047-1.332,6.392-1.818,9.69-1.983c0,4.107,0,8.214,0,12.321c0,1.987,0,3.973,0,5.96c0,1.06,0,2.119,0,3.178
	c0,0.378,0.239,2.583-0.052,2.77c-0.354,0.227-1.424,0.009-1.811,0.009c-1.065,0-2.131,0-3.197,0c-2.131,0-4.262,0-6.393,0
	C8.588,91.317,4.326,91.317,0.063,91.317"/>
<path style="fill:none;stroke:#010101;stroke-width:0.1212;stroke-linecap:square;stroke-miterlimit:10;" d="M0.063,91.317
	c0.32-6.431,2.455-12.431,7.084-17.022c2.139-2.121,4.694-4.023,7.464-5.233c3.047-1.332,6.392-1.818,9.69-1.983"/>
<path style="fill:none;stroke:#010101;stroke-width:0.1212;stroke-linecap:square;stroke-miterlimit:10;" d="M24.303,67.079
	c0,4.107,0,8.214,0,12.321c0,1.987,0,3.973,0,5.96c0,1.06,0,2.119,0,3.178c0,0.378,0.238,2.583-0.053,2.77
	c-0.354,0.227-1.424,0.009-1.811,0.009c-1.065,0-2.131,0-3.197,0c-2.131,0-4.262,0-6.393,0c-4.263,0-8.524,0-12.787,0"/>
<path style="fill:#FFFFFF;" d="M24.303,115.555c-6.433-0.32-12.432-2.453-17.023-7.082c-2.121-2.14-4.024-4.695-5.234-7.464
	c-1.332-3.047-1.817-6.392-1.982-9.691c4.106,0,8.215,0,12.321,0c1.987,0,3.974,0,5.961,0c1.06,0,2.118,0,3.179,0
	c0.378,0,2.583-0.239,2.77,0.052c0.228,0.355,0.01,1.424,0.01,1.811c0,1.065,0,2.131,0,3.196c0,2.131,0,4.262,0,6.393
	C24.303,107.031,24.303,111.292,24.303,115.555"/>
<path style="fill:none;stroke:#FFFFFF;stroke-width:0.1212;stroke-linecap:square;stroke-miterlimit:10;" d="M24.303,115.555
	c-6.433-0.32-12.432-2.453-17.023-7.082c-2.121-2.14-4.024-4.695-5.234-7.464c-1.332-3.047-1.817-6.392-1.982-9.691"/>
<path style="fill:#FFFFFF;" d="M24.303,115.555c-6.433-0.32-12.432-2.453-17.023-7.082c-2.121-2.14-4.024-4.695-5.234-7.464
	c-1.332-3.047-1.817-6.392-1.982-9.691c4.106,0,8.215,0,12.321,0c1.987,0,3.974,0,5.961,0c1.06,0,2.118,0,3.179,0
	c0.378,0,2.583-0.239,2.77,0.052c0.228,0.355,0.01,1.424,0.01,1.811c0,1.065,0,2.131,0,3.196c0,2.131,0,4.262,0,6.393
	C24.303,107.031,24.303,111.292,24.303,115.555"/>
<path style="fill:none;stroke:#010101;stroke-width:0.1212;stroke-linecap:square;stroke-miterlimit:10;" d="M24.303,115.555
	c-6.433-0.32-12.432-2.453-17.023-7.082c-2.121-2.14-4.024-4.695-5.234-7.464c-1.332-3.047-1.817-6.392-1.982-9.691"/>
<path style="fill:none;stroke:#010101;stroke-width:0.1212;stroke-linecap:square;stroke-miterlimit:10;" d="M0.063,91.317
	c4.106,0,8.215,0,12.321,0c1.156,0,11.9-0.305,11.945,0.182c0.155,1.696-0.026,3.51-0.026,5.218c0,2.106,0,4.213,0,6.319
	c0,4.213,0,8.426,0,12.639"/>
<line style="fill:none;stroke:#010101;stroke-width:0.1212;stroke-linecap:square;stroke-miterlimit:10;" x1="24.061" y1="0.061" x2="24.303" y2="176.15"/>
<path style="fill:#FFFFFF;" d="M24.303,67.079c6.431,0.321,12.431,2.455,17.022,7.083c2.121,2.138,4.024,4.695,5.234,7.463
	c1.332,3.047,1.817,6.393,1.981,9.691c-4.106,0-8.215,0-12.321,0c-1.986,0-3.974,0-5.961,0c-1.06,0-2.118,0-3.179,0
	c-0.379,0-2.583,0.239-2.77-0.052c-0.228-0.355-0.01-1.424-0.01-1.811c0-1.065,0-2.131,0-3.196c0-2.131,0-4.262,0-6.393
	C24.303,75.603,24.303,71.341,24.303,67.079"/>
<path style="fill:none;stroke:#FFFFFF;stroke-width:0.1212;stroke-linecap:square;stroke-miterlimit:10;" d="M24.303,67.079
	c6.431,0.321,12.431,2.455,17.022,7.083c2.121,2.138,4.024,4.695,5.234,7.463c1.332,3.047,1.817,6.393,1.981,9.691"/>
<path style="fill:#FFFFFF;" d="M24.303,67.079c6.431,0.321,12.431,2.455,17.022,7.083c2.121,2.138,4.024,4.695,5.234,7.463
	c1.332,3.047,1.817,6.393,1.981,9.691c-4.106,0-8.215,0-12.321,0c-1.986,0-3.974,0-5.961,0c-1.06,0-2.118,0-3.179,0
	c-0.379,0-2.583,0.239-2.77-0.052c-0.228-0.355-0.01-1.424-0.01-1.811c0-1.065,0-2.131,0-3.196c0-2.131,0-4.262,0-6.393
	C24.303,75.603,24.303,71.341,24.303,67.079"/>
<path style="fill:none;stroke:#010101;stroke-width:0.1212;stroke-linecap:square;stroke-miterlimit:10;" d="M24.303,67.079
	c6.431,0.321,12.431,2.455,17.022,7.083c2.121,2.138,4.024,4.695,5.234,7.463c1.332,3.047,1.817,6.393,1.981,9.691"/>
<path style="fill:none;stroke:#010101;stroke-width:0.1212;stroke-linecap:square;stroke-miterlimit:10;" d="M48.543,91.317
	c-4.106,0-8.215,0-12.321,0c-1.986,0-3.974,0-5.96,0c-1.061,0-2.119,0-3.18,0c-0.379,0-2.583,0.239-2.77-0.052
	c-0.228-0.355-0.009-1.424-0.009-1.811c0-1.065,0-2.131,0-3.196c0-2.131,0-4.262,0-6.393c0-4.262,0-8.524,0-12.786"/>
<path style="fill:#010101;" d="M48.543,91.317c-0.306,6.431-2.375,12.774-7.209,17.263c-2.229,2.07-4.832,3.957-7.653,5.127
	c-2.966,1.23-6.189,1.689-9.376,1.849c0-4.106,0-8.214,0-12.32c0-1.987,0-3.974,0-5.96c0-1.06,0-2.119,0-3.178
	c0-0.378-0.239-2.583,0.052-2.77c0.354-0.227,1.424-0.009,1.811-0.009c1.066,0,2.132,0,3.197,0c2.131,0,4.262,0,6.394,0
	C40.02,91.317,44.281,91.317,48.543,91.317"/>
<path style="fill:none;stroke:#FFFFFF;stroke-width:0.1212;stroke-linecap:square;stroke-miterlimit:10;" d="M48.543,91.317
	c-0.306,6.431-2.375,12.774-7.209,17.263c-2.229,2.07-4.832,3.957-7.653,5.127c-2.966,1.23-6.189,1.689-9.376,1.849"/>
<path style="fill:#010101;" d="M48.543,91.317c-0.306,6.431-2.375,12.774-7.209,17.263c-2.229,2.07-4.832,3.957-7.653,5.127
	c-2.966,1.23-6.189,1.689-9.376,1.849c0-4.106,0-8.214,0-12.32c0-1.987,0-3.974,0-5.96c0-1.06,0-2.119,0-3.178
	c0-0.378-0.239-2.583,0.052-2.77c0.354-0.227,1.424-0.009,1.811-0.009c1.066,0,2.132,0,3.197,0c2.131,0,4.262,0,6.394,0
	C40.02,91.317,44.281,91.317,48.543,91.317"/>
<path style="fill:none;stroke:#010101;stroke-width:0.1212;stroke-linecap:square;stroke-miterlimit:10;" d="M48.543,91.317
	c-0.306,6.431-2.375,12.774-7.209,17.263c-2.229,2.07-4.832,3.957-7.653,5.127c-2.966,1.23-6.189,1.689-9.376,1.849"/>
<path style="fill:none;stroke:#010101;stroke-width:0.1212;stroke-linecap:square;stroke-miterlimit:10;" d="M24.303,115.675
	c0-4.094,0-8.189,0-12.285c0-1.995,0-3.989,0-5.983c0-1.066,0-2.133,0-3.199c0-0.409-0.258-2.68,0.062-2.887
	c0.396-0.255,1.646-0.004,2.109-0.004c1.051,0,2.102,0,3.151,0c2.103,0,4.204,0,6.307,0c4.204,0,8.406,0,12.609,0"/>
<path style="fill:#FFFFFF;" d="M12.184,91.317c0.175-1.752,0.422-3.275,1.042-4.93c0.514-1.373,1.441-2.644,2.473-3.675
	c1.019-1.018,2.272-1.946,3.626-2.457c1.675-0.631,3.206-0.88,4.979-1.057c0,2.499,0,4.998,0,7.497c0,0.964-0.067,1.955,0.014,2.915
	c0.031,0.372,0.284,1.409-0.014,1.707c-0.272,0.272-1.214,0.044-1.551,0.015c-1.077-0.093-2.189-0.015-3.271-0.015
	C17.05,91.317,14.617,91.317,12.184,91.317"/>
<path style="fill:none;stroke:#FFFFFF;stroke-width:0.1212;stroke-linecap:square;stroke-miterlimit:10;" d="M12.184,91.317
	c0.175-1.752,0.422-3.275,1.042-4.93c0.514-1.373,1.441-2.644,2.473-3.675c1.019-1.018,2.272-1.946,3.626-2.457
	c1.675-0.631,3.206-0.88,4.979-1.057"/>
<path style="fill:#FFFFFF;" d="M12.184,91.317c0.175-1.752,0.422-3.275,1.042-4.93c0.514-1.373,1.441-2.644,2.473-3.675
	c1.019-1.018,2.272-1.946,3.626-2.457c1.675-0.631,3.206-0.88,4.979-1.057c0,2.499,0,4.998,0,7.497c0,0.964-0.067,1.955,0.014,2.915
	c0.031,0.372,0.284,1.409-0.014,1.707c-0.272,0.272-1.214,0.044-1.551,0.015c-1.077-0.093-2.189-0.015-3.271-0.015
	C17.05,91.317,14.617,91.317,12.184,91.317"/>
<path style="fill:none;stroke:#010101;stroke-width:0.1212;stroke-linecap:square;stroke-miterlimit:10;" d="M12.184,91.317
	c0.175-1.752,0.422-3.275,1.042-4.93c0.514-1.373,1.441-2.644,2.473-3.675c1.019-1.018,2.272-1.946,3.626-2.457
	c1.675-0.631,3.206-0.88,4.979-1.057"/>
<path style="fill:none;stroke:#010101;stroke-width:0.1212;stroke-linecap:square;stroke-miterlimit:10;" d="M24.303,79.198
	c0,2.499,0,4.998,0,7.497c0,0.964-0.067,1.955,0.014,2.915c0.031,0.372,0.284,1.409-0.014,1.707
	c-0.272,0.272-1.214,0.044-1.551,0.015c-1.077-0.093-2.189-0.015-3.271-0.015c-2.434,0-4.866,0-7.299,0"/>
<path style="fill:#010101;" d="M24.303,79.198c2.077,0.208,3.88,0.579,5.769,1.525c1.6,0.802,2.986,1.97,4.011,3.441
	c1.085,1.558,1.846,3.483,2.221,5.339c0.104,0.509,0.32,1.222,0.164,1.734c-0.111,0.367-1.205,0.169-1.467,0.147
	c-1.833-0.158-3.693-0.067-5.534-0.067c-1.131,0-2.261,0-3.392,0c-0.599,0-1.72,0.333-1.833-0.478
	c-0.07-0.5,0.007-1.016,0.047-1.515c0.082-0.994,0.015-2.017,0.015-3.015C24.303,83.939,24.303,81.569,24.303,79.198"/>
<path style="fill:none;stroke:#FFFFFF;stroke-width:0.1212;stroke-linecap:square;stroke-miterlimit:10;" d="M24.303,79.198
	c1.752,0.175,3.275,0.422,4.931,1.042c1.464,0.549,2.825,1.562,3.892,2.696c2.088,2.217,3.298,5.339,3.298,8.381"/>
<path style="fill:#010101;" d="M24.303,79.198c2.077,0.208,3.88,0.579,5.769,1.525c1.6,0.802,2.986,1.97,4.011,3.441
	c1.085,1.558,1.846,3.483,2.221,5.339c0.104,0.509,0.32,1.222,0.164,1.734c-0.111,0.367-1.205,0.169-1.467,0.147
	c-1.833-0.158-3.693-0.067-5.534-0.067c-1.131,0-2.261,0-3.392,0c-0.599,0-1.72,0.333-1.833-0.478
	c-0.07-0.5,0.007-1.016,0.047-1.515c0.082-0.994,0.015-2.017,0.015-3.015C24.303,83.939,24.303,81.569,24.303,79.198"/>
<path style="fill:none;stroke:#010101;stroke-width:0.1212;stroke-linecap:square;stroke-miterlimit:10;" d="M24.303,79.198
	c1.752,0.175,3.275,0.422,4.931,1.042c1.464,0.549,2.825,1.562,3.892,2.696c2.088,2.217,3.298,5.339,3.298,8.381"/>
<path style="fill:none;stroke:#010101;stroke-width:0.1212;stroke-linecap:square;stroke-miterlimit:10;" d="M36.424,91.317
	c-2.5,0-4.999,0-7.498,0c-0.964,0-1.954-0.067-2.916,0.014c-0.37,0.032-1.407,0.284-1.706-0.014
	c-0.272-0.272-0.045-1.213-0.016-1.55c0.093-1.077,0.016-2.189,0.016-3.27c0-2.433,0-4.866,0-7.299"/>
<path style="fill:#FFFFFF;" d="M36.424,91.317c0,3.505-1.613,7.054-4.326,9.289c-1.509,1.242-3.428,2.069-5.309,2.558
	c-0.673,0.175-1.398,0.338-2.1,0.345c-0.615,0.005-0.511-0.577-0.486-1.056c0.102-1.861,0.101-3.714,0.101-5.58
	c0-1.136,0-2.272,0-3.408c0-0.506-0.329-2.011,0.319-2.179c0.533-0.138,1.133-0.027,1.672,0.017
	c0.994,0.082,2.019,0.014,3.016,0.014C31.682,91.317,34.053,91.317,36.424,91.317"/>
<path style="fill:none;stroke:#FFFFFF;stroke-width:0.1212;stroke-linecap:square;stroke-miterlimit:10;" d="M36.424,91.317
	c0,6.578-5.543,12.119-12.12,12.119"/>
<path style="fill:#FFFFFF;" d="M36.424,91.317c0,3.505-1.613,7.054-4.326,9.289c-1.509,1.242-3.428,2.069-5.309,2.558
	c-0.673,0.175-1.398,0.338-2.1,0.345c-0.615,0.005-0.511-0.577-0.486-1.056c0.102-1.861,0.101-3.714,0.101-5.58
	c0-1.136,0-2.272,0-3.408c0-0.506-0.329-2.011,0.319-2.179c0.533-0.138,1.133-0.027,1.672,0.017
	c0.994,0.082,2.019,0.014,3.016,0.014C31.682,91.317,34.053,91.317,36.424,91.317"/>
<path style="fill:none;stroke:#010101;stroke-width:0.1212;stroke-linecap:square;stroke-miterlimit:10;" d="M36.424,91.317
	c0,6.578-5.543,12.119-12.12,12.119"/>
<path style="fill:none;stroke:#010101;stroke-width:0.1212;stroke-linecap:square;stroke-miterlimit:10;" d="M24.303,103.436
	c0-2.499,0-4.998,0-7.497c0-0.963,0.066-1.954-0.015-2.915c-0.031-0.372-0.284-1.409,0.015-1.707
	c0.271-0.272,1.212-0.044,1.55-0.015c1.076,0.093,2.188,0.015,3.271,0.015c2.434,0,4.866,0,7.3,0"/>
<path style="fill:#010101;" d="M24.303,103.436c-3.042,0-6.164-1.209-8.382-3.297c-1.12-1.054-2.136-2.397-2.682-3.844
	c-0.631-1.674-0.88-3.205-1.057-4.978c2.499,0,4.999,0,7.498,0c0.964,0,1.955,0.067,2.915-0.014
	c0.371-0.032,1.408-0.284,1.707,0.014c0.271,0.272,0.044,1.213,0.015,1.55c-0.093,1.077-0.015,2.19-0.015,3.271
	C24.303,98.57,24.303,101.003,24.303,103.436"/>
<path style="fill:none;stroke:#FFFFFF;stroke-width:0.1212;stroke-linecap:square;stroke-miterlimit:10;" d="M24.303,103.436
	c-3.042,0-6.164-1.209-8.382-3.297c-1.12-1.054-2.136-2.397-2.682-3.844c-0.631-1.674-0.88-3.205-1.057-4.978"/>
<path style="fill:#010101;" d="M24.303,103.436c-3.042,0-6.164-1.209-8.382-3.297c-1.12-1.054-2.136-2.397-2.682-3.844
	c-0.631-1.674-0.88-3.205-1.057-4.978c2.499,0,4.999,0,7.498,0c0.964,0,1.955,0.067,2.915-0.014
	c0.371-0.032,1.408-0.284,1.707,0.014c0.271,0.272,0.044,1.213,0.015,1.55c-0.093,1.077-0.015,2.19-0.015,3.271
	C24.303,98.57,24.303,101.003,24.303,103.436"/>
<path style="fill:none;stroke:#010101;stroke-width:0.1212;stroke-linecap:square;stroke-miterlimit:10;" d="M24.303,103.436
	c-3.042,0-6.164-1.209-8.382-3.297c-1.12-1.054-2.136-2.397-2.682-3.844c-0.631-1.674-0.88-3.205-1.057-4.978"/>
<path style="fill:none;stroke:#010101;stroke-width:0.1212;stroke-linecap:square;stroke-miterlimit:10;" d="M12.184,91.317
	c2.499,0,4.999,0,7.498,0c0.964,0,1.955,0.067,2.915-0.014c0.372-0.032,1.408-0.284,1.707,0.014c0.271,0.272,0.044,1.213,0.015,1.55
	c-0.093,1.077-0.015,2.19-0.015,3.271c0,2.433,0,4.866,0,7.298"/>
<path style="fill:#010101;" d="M24.061,0.424c-3.273,10.387-6.547,20.774-9.82,31.162c-0.582,1.846-1.196,3.667-1.841,5.488
	c-0.341,0.962-0.127,1.177,0.441,2.042c0.791,1.202,1.582,2.404,2.373,3.606c3.029,4.604,6.06,9.209,9.089,13.813
	c0-9.362,0-18.723,0-28.085c0-4.643,0-9.285,0-13.928c0-2.388,0-4.775,0-7.163c0-1.194,0-2.388,0-3.582
	C24.303,2.647,24.422,1.507,24.061,0.424"/>
<path style="fill:none;stroke:#010101;stroke-width:0.1212;stroke-linecap:square;stroke-miterlimit:10;" d="M24.061,0.424
	c-3.273,10.387-6.547,20.774-9.82,31.162c-0.582,1.846-1.196,3.667-1.841,5.488c-0.341,0.962-0.127,1.177,0.441,2.042
	c0.791,1.202,1.582,2.404,2.373,3.606c3.029,4.604,6.06,9.209,9.089,13.813c0-18.461,0-36.923,0-55.384"/>
<path style="fill:#FFFFFF;" d="M24.061,0.424c3.244,9.989,6.487,19.978,9.731,29.966c0.769,2.362,1.534,4.724,2.303,7.085
	c0.152,0.475,0.287,0.515-0.012,0.974c-0.354,0.544-0.709,1.088-1.062,1.632c-0.709,1.088-1.418,2.176-2.127,3.265
	c-2.864,4.396-5.729,8.793-8.591,13.189c0-9.362,0-18.723,0-28.085c0-4.643,0-9.285,0-13.928c0-2.388,0-4.775,0-7.163
	c0-1.194,0-2.388,0-3.582C24.303,2.647,24.422,1.507,24.061,0.424"/>
<path style="fill:none;stroke:#010101;stroke-width:0.1212;stroke-linecap:square;stroke-miterlimit:10;" d="M24.061,0.424
	c3.244,9.989,6.487,19.978,9.731,29.966c0.769,2.362,1.534,4.724,2.303,7.085c0.152,0.475,0.287,0.515-0.012,0.974
	c-0.354,0.544-0.709,1.088-1.062,1.632c-0.709,1.088-1.418,2.176-2.127,3.265c-2.864,4.396-5.729,8.793-8.591,13.189
	c0-18.461,0-36.923,0-55.384"/>
<path style="fill:#FFFFFF;" d="M24.061,164.395c-1.63,3.228-3.261,6.454-4.892,9.681c-0.262,0.52-0.604,0.989-0.866,1.508
	c-0.324,0.643-0.183,1.443-0.183,2.141c0,1.965,0,3.928,0,5.891c0,7.612,0,15.225,0,22.836c1.313-1.262,2.626-2.522,3.939-3.785
	c0.567-0.545,1.115-1.125,1.73-1.617c0.71-0.569,0.511-1.33,0.511-2.17c0-3.821,0-7.643,0-11.463c0-7.795,0-15.588,0-23.383
	C24.216,164.148,24.135,164.27,24.061,164.395"/>
<path style="fill:none;stroke:#010101;stroke-width:0.1212;stroke-linecap:square;stroke-miterlimit:10;" d="M24.061,164.395
	c-1.63,3.228-3.261,6.454-4.892,9.681c-0.262,0.52-0.604,0.989-0.866,1.508c-0.324,0.643-0.183,1.443-0.183,2.141
	c0,1.965,0,3.928,0,5.891c0,7.612,0,15.225,0,22.836c1.313-1.262,2.626-2.522,3.939-3.785c0.567-0.545,1.115-1.125,1.73-1.617
	c0.71-0.569,0.511-1.33,0.511-2.17c0-3.821,0-7.643,0-11.463c0-7.795,0-15.588,0-23.383"/>
<path style="fill:#010101;" d="M24.061,164.395c1.729,3.228,3.458,6.453,5.188,9.679c0.331,0.618,1.073,1.53,1.152,2.227
	c0.068,0.615-0.039,1.309-0.039,1.928c0,1.938,0,3.873,0,5.811c0,7.471,0,14.94,0,22.412c-1.307-1.281-2.611-2.561-3.918-3.84
	c-0.582-0.57-1.151-1.154-1.771-1.686c-0.653-0.562-0.373-1.756-0.373-2.535c0-3.848,0-7.694,0-11.541c0-7.605,0-15.211,0-22.816
	C24.216,164.148,24.135,164.27,24.061,164.395"/>
<path style="fill:none;stroke:#010101;stroke-width:0.1212;stroke-linecap:square;stroke-miterlimit:10;" d="M24.061,164.395
	c1.729,3.228,3.458,6.453,5.188,9.679c0.331,0.618,1.073,1.53,1.152,2.227c0.068,0.615-0.039,1.309-0.039,1.928
	c0,1.938,0,3.873,0,5.811c0,7.471,0,14.94,0,22.412c-1.307-1.281-2.611-2.561-3.918-3.84c-0.582-0.57-1.151-1.154-1.771-1.686
	c-0.653-0.562-0.373-1.756-0.373-2.535c0-3.848,0-7.694,0-11.541c0-7.605,0-15.211,0-22.816"/>
<path style="fill:#010101;" d="M12.184,126.221c0,6.237,0,12.478,0,18.715c0,3.054,0,6.106,0,9.159c0,0.219-0.143,0.855,0.229,0.855
	c0.622,0,1.244-0.009,1.865-0.009c0.738,0,1.477,0,2.215,0c0.308,0,1.256,0.192,1.523-0.005c0.271-0.199,0.105-1.113,0.105-1.404
	c0-0.752,0-1.504,0-2.256c0-1.591,0-3.182,0-4.773c0-3.184,0-6.365,0-9.549c0-3.033,0-6.066,0-9.102c0-0.359,0.21-1.43-0.19-1.65
	c-0.317-0.176-0.835,0.019-1.177,0.019C15.231,126.221,13.708,126.221,12.184,126.221"/>
<path style="fill:none;stroke:#010101;stroke-width:0.1212;stroke-linecap:square;stroke-miterlimit:10;" d="M12.184,126.221
	c0,6.118,0,12.239,0,18.36c0,3.061,0,6.119,0,9.18c0,0.162-0.149,1.234,0.108,1.289c0.608,0.133,1.355,0.014,1.977,0.014
	c0.799,0,1.598,0,2.396,0c0.384,0,1.06,0.188,1.418,0.021c0.49-0.225,0.16-3.272,0.16-3.828c0-1.577,0-3.154,0-4.731
	c0-3.153,0-6.31,0-9.463c0-3.049,0-6.097,0-9.144c0-0.373,0.208-1.44-0.167-1.698c-0.287-0.197-0.855,0-1.175,0
	C15.329,126.221,13.756,126.221,12.184,126.221"/>
<path style="fill:#010101;" d="M28.909,126.221c0,6.237,0,12.478,0,18.715c0,3.054,0,6.106,0,9.159c0,0.219-0.142,0.855,0.229,0.855
	c0.62,0,1.242-0.009,1.864-0.009c0.738,0,1.478,0,2.215,0c0.309,0,1.257,0.192,1.523-0.005c0.271-0.199,0.105-1.113,0.105-1.404
	c0-0.752,0-1.504,0-2.256c0-1.591,0-3.182,0-4.773c0-3.184,0-6.365,0-9.549c0-3.033,0-6.066,0-9.102c0-0.359,0.21-1.43-0.191-1.65
	c-0.316-0.176-0.834,0.019-1.176,0.019C31.957,126.221,30.434,126.221,28.909,126.221"/>
<path style="fill:none;stroke:#010101;stroke-width:0.1212;stroke-linecap:square;stroke-miterlimit:10;" d="M28.909,126.221
	c0,6.118,0,12.239,0,18.36c0,3.061,0,6.119,0,9.18c0,0.162-0.149,1.234,0.108,1.289c0.607,0.133,1.354,0.014,1.977,0.014
	c0.799,0,1.598,0,2.396,0c0.385,0,1.059,0.188,1.418,0.021c0.489-0.225,0.159-3.272,0.159-3.828c0-1.577,0-3.154,0-4.731
	c0-3.153,0-6.31,0-9.463c0-3.049,0-6.097,0-9.144c0-0.373,0.207-1.44-0.167-1.698c-0.285-0.197-0.855,0-1.175,0
	C32.055,126.221,30.481,126.221,28.909,126.221"/>
<path style="fill:#010101;" d="M18.122,126.099c2.997,4.646,5.992,9.292,8.989,13.938c0.535,0.83,1.519,1.842,1.798,2.787
	c0.298,1.012,0,2.375,0,3.42c0,2.899,0,5.801,0,8.699c-3.016-4.643-6.031-9.281-9.046-13.923c-0.518-0.797-1.131-1.56-1.619-2.369
	c-0.252-0.42-0.122-1.039-0.122-1.507c0-0.794,0-1.589,0-2.383C18.122,131.873,18.122,128.986,18.122,126.099"/>
<path style="fill:none;stroke:#010101;stroke-width:0.1212;stroke-linecap:square;stroke-miterlimit:10;" d="M18.122,126.099
	c2.997,4.646,5.992,9.292,8.989,13.938c0.535,0.83,1.519,1.842,1.798,2.787c0.298,1.012,0,2.375,0,3.42c0,2.899,0,5.801,0,8.699
	c-3.016-4.643-6.031-9.281-9.046-13.923c-0.518-0.797-1.131-1.56-1.619-2.369c-0.252-0.42-0.122-1.039-0.122-1.507
	c0-0.794,0-1.589,0-2.383c0-2.848,0-5.694,0-8.54"/>
<path style="fill:#010101;" d="M12.184,153.246c-0.525,0.564-1.051,1.131-1.576,1.696c3.03,0,6.06,0,9.09,0
	c-0.435-0.401-1.205-1.454-1.807-1.517c-0.556-0.057-1.13,0.062-1.688,0.062C15.91,153.488,12.09,153.664,12.184,153.246"/>
<path style="fill:none;stroke:#010101;stroke-width:0.1212;stroke-linecap:square;stroke-miterlimit:10;" d="M12.184,153.246
	c-0.525,0.564-1.051,1.131-1.576,1.696c3.03,0,6.06,0,9.09,0c-0.505-0.466-1.01-0.933-1.516-1.399
	c-0.277-0.256-0.936-0.09-1.266-0.062c-1.557,0.124-3.171,0.01-4.732,0.01"/>
<path style="fill:#010101;" d="M12.062,126.099c-0.485,0.04-0.97,0.081-1.454,0.122c0.524,0.524,1.05,1.05,1.576,1.573
	C12.184,127.324,12.451,126.479,12.062,126.099"/>
<path style="fill:none;stroke:#010101;stroke-width:0.1212;stroke-linecap:square;stroke-miterlimit:10;" d="M12.062,126.099
	c-0.485,0.04-0.97,0.081-1.454,0.122c0.524,0.524,1.05,1.05,1.576,1.573c0-0.523,0-1.049,0-1.573"/>
<path style="fill:#010101;" d="M36.424,126.099c-3.029,0.04-6.061,0.081-9.09,0.122c0.476,0.475,0.821,1.114,1.398,1.479
	c0.358,0.229,0.971,0.094,1.375,0.094c0.741,0,1.481,0,2.225,0c0.822,0,2.228,0.318,2.888-0.25
	C35.584,127.23,36.344,126.607,36.424,126.099"/>
<path style="fill:none;stroke:#010101;stroke-width:0.1212;stroke-linecap:square;stroke-miterlimit:10;" d="M36.424,126.099
	c-3.029,0.04-6.061,0.081-9.09,0.122c0.473,0.472,0.816,1.097,1.377,1.479c0.332,0.227,0.916,0.096,1.296,0.096
	c0.592,0,1.183,0,1.772,0c0.623,0,1.247,0,1.871,0c0.403,0,1.016,0.135,1.374-0.094c0.577-0.367,0.925-1.007,1.398-1.48"/>
<path style="fill:#010101;" d="M34.848,154.82c0.524,0.041,1.051,0.082,1.575,0.122c-0.524-0.485-1.051-0.97-1.575-1.454
	c0,0.484,0,0.969,0,1.454C34.848,154.902,34.848,154.861,34.848,154.82"/>
<path style="fill:none;stroke:#010101;stroke-width:0.1212;stroke-linecap:square;stroke-miterlimit:10;" d="M34.848,154.82
	c0.524,0.041,1.051,0.082,1.575,0.122c-0.524-0.485-1.051-0.97-1.575-1.454c0,0.484,0,0.969,0,1.454"/>
</svg>
